<svg width="200" height="200" viewBox="0 0 200 200" fill="none" xmlns="http://www.w3.org/2000/svg">
<path d="M138.023 39.1562C138.023 31.338 144.361 25 152.18 25H185.211C193.029 25 199.367 31.338 199.367 39.1562V161.844C199.367 169.662 193.029 176 185.211 176H152.18C144.361 176 138.023 169.662 138.023 161.844V39.1562Z" fill="#22C55E"/>
<path d="M46.0078 39.1562C46.0078 31.338 52.3458 25 60.1641 25H93.1953C101.014 25 107.352 31.338 107.352 39.1562V161.844C107.352 169.662 101.014 176 93.1953 176H60.1641C52.3458 176 46.0078 169.662 46.0078 161.844V39.1562Z" fill="#22C55E"/>
<path d="M46.0078 128.812H107.352V144.148H46.0078V128.812Z" fill="url(#paint0_linear_2212_9860)"/>
<path d="M138.023 128.812H199.367V144.148H138.023V128.812Z" fill="url(#paint1_linear_2212_9860)"/>
<path d="M0 87.5234C0 79.7052 6.33797 73.3672 14.1562 73.3672H199.367V129.992H14.1563C6.33797 129.992 0 123.654 0 115.836V87.5234Z" fill="#4ADE80"/>
<defs>
<linearGradient id="paint0_linear_2212_9860" x1="76.6797" y1="128.813" x2="76.6797" y2="144.148" gradientUnits="userSpaceOnUse">
<stop stop-color="#16A34A"/>
<stop offset="1" stop-color="#16A34A" stop-opacity="0"/>
</linearGradient>
<linearGradient id="paint1_linear_2212_9860" x1="168.695" y1="128.813" x2="168.695" y2="144.148" gradientUnits="userSpaceOnUse">
<stop stop-color="#16A34A"/>
<stop offset="1" stop-color="#16A34A" stop-opacity="0"/>
</linearGradient>
</defs>
</svg>
